JosefinSans-ThinItalic.ufo
<glyph name="percent" format="2">
  <advance width="758"/>
  <unicode hex="0025"/>
  <outline>
    <contour>
      <point x="225.333" y="223.333" type="curve"/>
      <point x="287" y="221.333"/>
      <point x="342.833" y="273"/>
      <point x="352" y="362.333" type="curve"/>
      <point x="361.167" y="455.5"/>
      <point x="309.667" y="501.5"/>
      <point x="256.5" y="504.833" type="curve"/>
      <point x="191.5" y="507.167"/>
      <point x="137.167" y="454.667"/>
      <point x="128.833" y="366.833" type="curve"/>
      <point x="119.667" y="272.667"/>
      <point x="169.833" y="226.667"/>
    </contour>
    <contour>
      <point x="227" y="240" type="curve"/>
      <point x="179.5" y="242.5"/>
      <point x="139.333" y="283.5"/>
      <point x="146.833" y="365.333" type="curve"/>
      <point x="156" y="445.667"/>
      <point x="200.333" y="490.167"/>
      <point x="254" y="488" type="curve"/>
      <point x="301" y="485.5"/>
      <point x="341.667" y="441.333"/>
      <point x="333.333" y="362" type="curve"/>
      <point x="325.833" y="285.333"/>
      <point x="280.167" y="237.833"/>
    </contour>
    <contour>
      <point x="532.667" y="2.667" type="curve"/>
      <point x="594.833" y="0.167"/>
      <point x="651" y="52.5"/>
      <point x="660.167" y="141.333" type="curve"/>
      <point x="669.333" y="234"/>
      <point x="618.833" y="280.833"/>
      <point x="564.667" y="284.167" type="curve"/>
      <point x="499.667" y="286.667"/>
      <point x="445.333" y="233.833"/>
      <point x="437" y="145.833" type="curve"/>
      <point x="427.833" y="52.333"/>
      <point x="477.667" y="6"/>
    </contour>
    <contour>
      <point x="534.833" y="19.333" type="curve"/>
      <point x="487.667" y="21.833"/>
      <point x="447.333" y="62.833"/>
      <point x="454.833" y="144.667" type="curve"/>
      <point x="464" y="225.167"/>
      <point x="508.667" y="269.833"/>
      <point x="562.333" y="267.333" type="curve"/>
      <point x="609.333" y="264.833"/>
      <point x="649.667" y="220.333"/>
      <point x="641.333" y="141.667" type="curve"/>
      <point x="633.833" y="65.333"/>
      <point x="589" y="17"/>
    </contour>
    <contour>
      <point x="586" y="507.667" type="line"/>
      <point x="564.5" y="507.667" type="line"/>
      <point x="195.5" y="0" type="line"/>
      <point x="216.833" y="-0.167" type="line"/>
    </contour>
  </outline>
</glyph>
<glyph name="parenright" format="2">
  <advance width="324"/>
  <unicode hex="0029"/>
  <outline>
    <contour>
      <point x="241.667" y="362.5" type="curve" smooth="yes"/>
      <point x="241.667" y="362.5" type="line" smooth="yes"/>
      <point x="242.667" y="528.333"/>
      <point x="189.333" y="671.667"/>
      <point x="126.833" y="747.667" type="curve"/>
      <point x="115.833" y="728.333" type="line"/>
      <point x="172.167" y="653.5"/>
      <point x="221.833" y="515.333"/>
      <point x="220.833" y="359.167" type="curve" smooth="yes"/>
      <point x="219.833" y="136.833"/>
      <point x="110.5" y="-42"/>
      <point x="10" y="-142.333" type="curve"/>
      <point x="14.833" y="-163.167" type="line"/>
      <point x="123.167" y="-61.833"/>
      <point x="240.5" y="129"/>
    </contour>
  </outline>
</glyph>
<glyph name="comma" format="2">
  <advance width="200"/>
  <unicode hex="002C"/>
  <outline>
    <contour>
      <point x="18.5" y="-181.5" type="line"/>
      <point x="74.667" y="-155.833"/>
      <point x="90.667" y="-99.5"/>
      <point x="91" y="-47.167" type="curve"/>
      <point x="69.5" y="-46.167" type="line"/>
      <point x="69.833" y="-102.833"/>
      <point x="50.167" y="-147.5"/>
      <point x="9.667" y="-171.667" type="curve"/>
    </contour>
  </outline>
</glyph>
<glyph name="six" format="2">
  <advance width="521"/>
  <unicode hex="0036"/>
  <outline>
    <contour>
      <point x="234.333" y="-7" type="curve" smooth="yes"/>
      <point x="350" y="-12.833"/>
      <point x="450.5" y="75.333"/>
      <point x="461.333" y="186.5" type="curve" smooth="yes"/>
      <point x="473" y="298.167"/>
      <point x="392" y="390.833"/>
      <point x="281.5" y="396.667" type="curve" smooth="yes"/>
      <point x="214.667" y="400"/>
      <point x="145.167" y="373.667"/>
      <point x="102.5" y="318" type="curve"/>
      <point x="107" y="313.667" type="line"/>
      <point x="150.5" y="408.333"/>
      <point x="265" y="512.167"/>
      <point x="444.5" y="610" type="curve"/>
      <point x="434.167" y="627.333" type="line"/>
      <point x="248.667" y="515.833"/>
      <point x="72" y="389.5"/>
      <point x="52" y="204.5" type="curve" smooth="yes"/>
      <point x="40.333" y="92.333"/>
      <point x="121.5" y="-2"/>
    </contour>
    <contour>
      <point x="235.333" y="11.167" type="curve" smooth="yes"/>
      <point x="132.667" y="16.167"/>
      <point x="59.833" y="101.833"/>
      <point x="70.667" y="202.833" type="curve" smooth="yes"/>
      <point x="81.5" y="305.333"/>
      <point x="164.333" y="384"/>
      <point x="276.5" y="379" type="curve" smooth="yes"/>
      <point x="378.167" y="374"/>
      <point x="452.333" y="287"/>
      <point x="442.333" y="186.667" type="curve" smooth="yes"/>
      <point x="431.5" y="90.167"/>
      <point x="345.167" y="5.333"/>
    </contour>
  </outline>
</glyph>
<glyph name="seven" format="2">
  <advance width="468"/>
  <unicode hex="0037"/>
  <outline>
    <contour>
      <point x="476.167" y="650.5" type="line"/>
      <point x="73" y="650.5" type="line"/>
      <point x="70.333" y="632" type="line"/>
      <point x="458.833" y="632" type="line"/>
      <point x="447" y="641.333" type="line"/>
      <point x="80.5" y="0" type="line"/>
      <point x="106.167" y="0" type="line"/>
    </contour>
  </outline>
</glyph>
<glyph name="nine" format="2">
  <advance width="525"/>
  <unicode hex="0039"/>
  <outline>
    <contour>
      <point x="258.667" y="229.167" type="curve" smooth="yes"/>
      <point x="339" y="224.5"/>
      <point x="391" y="248.667"/>
      <point x="444.5" y="304.667" type="curve"/>
      <point x="429.5" y="302.667" type="line"/>
      <point x="390.833" y="230"/>
      <point x="284.167" y="122.667"/>
      <point x="94.167" y="18" type="curve"/>
      <point x="105.5" y="-0.167" type="line"/>
      <point x="273.167" y="101.667"/>
      <point x="467.333" y="227.833"/>
      <point x="489.333" y="419.333" type="curve"/>
      <point x="503.667" y="544.333"/>
      <point x="421.667" y="627.167"/>
      <point x="308.5" y="632.833" type="curve" smooth="yes"/>
      <point x="193.333" y="639.5"/>
      <point x="92.5" y="552.833"/>
      <point x="80" y="442.333" type="curve" smooth="yes"/>
      <point x="66.667" y="330.5"/>
      <point x="147" y="235.833"/>
    </contour>
    <contour>
      <point x="263" y="247.833" type="curve" smooth="yes"/>
      <point x="161.167" y="253.5"/>
      <point x="87.667" y="340.833"/>
      <point x="99.167" y="441.667" type="curve" smooth="yes"/>
      <point x="111.667" y="542.833"/>
      <point x="204.333" y="620.5"/>
      <point x="307.5" y="613.833" type="curve" smooth="yes"/>
      <point x="406.667" y="608"/>
      <point x="478.167" y="532.333"/>
      <point x="471.333" y="427.833" type="curve"/>
      <point x="454.667" y="295.833"/>
      <point x="376.667" y="241"/>
    </contour>
  </outline>
</glyph>
<glyph name="colon" format="2">
  <advance width="175"/>
  <unicode hex="003A"/>
  <outline>
    <contour>
      <point x="65" y="20" type="curve" smooth="yes"/>
      <point x="65" y="20" type="line" smooth="yes"/>
      <point x="65" y="8.833"/>
      <point x="74" y="0"/>
      <point x="85.167" y="0" type="curve" smooth="yes"/>
      <point x="98.167" y="0"/>
      <point x="110.5" y="11"/>
      <point x="110.5" y="24.5" type="curve" smooth="yes"/>
      <point x="110.5" y="35.667"/>
      <point x="101.667" y="44.667"/>
      <point x="90.667" y="44.667" type="curve" smooth="yes"/>
      <point x="77.5" y="44.667"/>
      <point x="65" y="33.5"/>
    </contour>
    <contour>
      <point x="96.167" y="271.5" type="curve" smooth="yes"/>
      <point x="96.167" y="271.5" type="line" smooth="yes"/>
      <point x="96.167" y="260.333"/>
      <point x="105.333" y="251.5"/>
      <point x="116.333" y="251.5" type="curve" smooth="yes"/>
      <point x="129.333" y="251.5"/>
      <point x="140.833" y="262.5"/>
      <point x="140.833" y="276" type="curve" smooth="yes"/>
      <point x="140.833" y="287.333"/>
      <point x="132.833" y="296.167"/>
      <point x="121.833" y="296.167" type="curve" smooth="yes"/>
      <point x="108.667" y="296.167"/>
      <point x="96.167" y="285"/>
    </contour>
  </outline>
</glyph>
<glyph name="semicolon" format="2">
  <advance width="201"/>
  <unicode hex="003B"/>
  <outline>
    <contour>
      <point x="119.667" y="270.333" type="curve" smooth="yes"/>
      <point x="119.667" y="270.333" type="line" smooth="yes"/>
      <point x="119.667" y="259"/>
      <point x="127.667" y="250.167"/>
      <point x="138.667" y="250.167" type="curve" smooth="yes"/>
      <point x="151.833" y="250.167"/>
      <point x="164.167" y="261.167"/>
      <point x="164.167" y="274.667" type="curve" smooth="yes"/>
      <point x="164.167" y="286"/>
      <point x="155.333" y="294.833"/>
      <point x="144.333" y="294.833" type="curve" smooth="yes"/>
      <point x="131.167" y="294.833"/>
      <point x="119.667" y="283.833"/>
    </contour>
    <contour>
      <point x="124.833" y="86.167" type="curve"/>
      <point x="97.5" y="86.167" type="line"/>
      <point x="63.333" y="17"/>
      <point x="29.333" y="-51"/>
      <point x="-4.667" y="-120.167" type="curve"/>
      <point x="13.667" y="-120.167" type="line"/>
      <point x="50.667" y="-51"/>
      <point x="87.667" y="17"/>
    </contour>
  </outline>
</glyph>
<glyph name="equal" format="2">
  <advance width="709"/>
  <unicode hex="003D"/>
  <outline>
    <contour>
      <point x="120.333" y="166.167" type="line"/>
      <point x="117.833" y="147.5" type="line"/>
      <point x="624.167" y="147.5" type="line"/>
      <point x="626.833" y="166.167" type="line"/>
    </contour>
    <contour>
      <point x="144.333" y="360.333" type="line"/>
      <point x="141.833" y="341.667" type="line"/>
      <point x="648.167" y="341.667" type="line"/>
      <point x="650.833" y="360.333" type="line"/>
    </contour>
  </outline>
</glyph>
<glyph name="A" format="2">
  <advance width="709"/>
  <unicode hex="0041"/>
  <anchor x="332" y="0" name="bottom"/>
  <anchor x="616.5" y="10" name="ogonek"/>
  <anchor x="425.167" y="726.833" name="top"/>
  <outline>
    <contour>
      <point x="60" y="0" type="line"/>
      <point x="425" y="702.667" type="line"/>
      <point x="411.333" y="699.5" type="line"/>
      <point x="601.667" y="0" type="line"/>
      <point x="623.333" y="0" type="line"/>
      <point x="422.667" y="733.5" type="line"/>
      <point x="420.333" y="733.5" type="line"/>
      <point x="39.333" y="0" type="line"/>
    </contour>
    <contour>
      <point x="195.167" y="281" type="line"/>
      <point x="190.5" y="262.5" type="line"/>
      <point x="538.167" y="262.5" type="line"/>
      <point x="538.5" y="281" type="line"/>
    </contour>
  </outline>
</glyph>
<glyph name="F" format="2">
  <advance width="571"/>
  <unicode hex="0046"/>
  <anchor x="262.5" y="0" name="bottom"/>
  <anchor x="348.5" y="700" name="top"/>
  <outline>
    <contour>
      <point x="181.833" y="701.667" type="line"/>
      <point x="95.667" y="0" type="line"/>
      <point x="115.667" y="0" type="line"/>
      <point x="156.333" y="334" type="line"/>
      <point x="476" y="334" type="line"/>
      <point x="478.667" y="353.5" type="line"/>
      <point x="159" y="353.5" type="line"/>
      <point x="199.167" y="682.167" type="line"/>
      <point x="557.833" y="682.167" type="line"/>
      <point x="560.5" y="701.667" type="line"/>
    </contour>
  </outline>
</glyph>
<glyph name="H" format="2">
  <advance width="736"/>
  <unicode hex="0048"/>
  <anchor x="344.333" y="0" name="bottom"/>
  <anchor x="387.167" y="350.5" name="center"/>
  <anchor x="430" y="701.833" name="top"/>
  <anchor x="76.833" y="700" name="topleft"/>
  <outline>
    <contour>
      <point x="679.333" y="701.667" type="line"/>
      <point x="659.333" y="701.667" type="line"/>
      <point x="617.667" y="362.667" type="line"/>
      <point x="160" y="362.667" type="line"/>
      <point x="201.833" y="701.667" type="line"/>
      <point x="181.833" y="701.667" type="line"/>
      <point x="95.667" y="0" type="line"/>
      <point x="115.667" y="0" type="line"/>
      <point x="158.333" y="344" type="line"/>
      <point x="616" y="344" type="line"/>
      <point x="573.167" y="0" type="line"/>
      <point x="593.167" y="0" type="line"/>
    </contour>
  </outline>
</glyph>
<glyph name="J" format="2">
  <advance width="310"/>
  <unicode hex="004A"/>
  <anchor x="125.333" y="0" name="bottom"/>
  <anchor x="238.333" y="701.667" name="top"/>
  <outline>
    <contour>
      <point x="178.5" y="92.833" type="curve" smooth="yes"/>
      <point x="253.333" y="701.667" type="line"/>
      <point x="234.5" y="701.667" type="line"/>
      <point x="159.667" y="95.833" type="line" smooth="yes"/>
      <point x="143.667" y="-38.5"/>
      <point x="60.333" y="-117.833"/>
      <point x="-37.333" y="-122.833" type="curve"/>
      <point x="-40" y="-142.5" type="line"/>
      <point x="-40" y="-142.5" type="line"/>
      <point x="64.333" y="-138.5"/>
      <point x="160.333" y="-57"/>
    </contour>
  </outline>
</glyph>
<glyph name="K" format="2">
  <advance width="641"/>
  <unicode hex="004B"/>
  <anchor x="297.167" y="0" name="bottom"/>
  <anchor x="383.5" y="701.667" name="top"/>
  <outline>
    <contour>
      <point x="160" y="365" type="line"/>
      <point x="201.667" y="701.667" type="line"/>
      <point x="181.833" y="701.667" type="line"/>
      <point x="95.667" y="0" type="line"/>
      <point x="115.5" y="0" type="line"/>
      <point x="153.333" y="314.333" type="line"/>
      <point x="266" y="409.667" type="line"/>
      <point x="539" y="0" type="line"/>
      <point x="564.333" y="0" type="line"/>
      <point x="282.667" y="423.167" type="line"/>
      <point x="607.5" y="701.667" type="line"/>
      <point x="582" y="701.667" type="line"/>
      <point x="152.167" y="334" type="line"/>
      <point x="154.833" y="330.833" type="line"/>
    </contour>
  </outline>
</glyph>
<glyph name="L" format="2">
  <advance width="561"/>
  <unicode hex="004C"/>
  <anchor x="303.667" y="0" name="bottom"/>
  <anchor x="535.167" y="350.833" name="center"/>
  <anchor x="185" y="702.5" name="top"/>
  <anchor x="603.167" y="701.667" name="topright"/>
  <outline>
    <contour>
      <point x="181.833" y="701.667" type="line"/>
      <point x="95.667" y="0" type="line"/>
      <point x="517.833" y="0" type="line"/>
      <point x="520.5" y="19.5" type="line"/>
      <point x="118" y="19.5" type="line"/>
      <point x="201.5" y="701.667" type="line"/>
    </contour>
  </outline>
</glyph>
<glyph name="M" format="2">
  <advance width="896"/>
  <unicode hex="004D"/>
  <anchor x="425.833" y="0" name="bottom"/>
  <anchor x="509.833" y="700" name="top"/>
  <outline>
    <contour>
      <point x="115.333" y="0" type="line"/>
      <point x="197" y="664.333" type="line"/>
      <point x="193.5" y="656.5" type="line"/>
      <point x="450.5" y="220.333" type="line"/>
      <point x="452.5" y="220.333" type="line"/>
      <point x="816.167" y="656.5" type="line"/>
      <point x="814.333" y="664.667" type="line"/>
      <point x="732.667" y="0" type="line"/>
      <point x="752.333" y="0" type="line"/>
      <point x="840.667" y="713.5" type="line"/>
      <point x="839.667" y="713.5" type="line"/>
      <point x="447.667" y="242" type="line"/>
      <point x="459.833" y="241.5" type="line"/>
      <point x="185" y="713.5" type="line"/>
      <point x="184" y="713.5" type="line"/>
      <point x="95.667" y="0" type="line"/>
    </contour>
  </outline>
</glyph>
<glyph name="N" format="2">
  <advance width="813"/>
  <unicode hex="004E"/>
  <anchor x="384.333" y="0" name="bottom"/>
  <anchor x="469.333" y="700" name="top"/>
  <outline>
    <contour>
      <point x="669.667" y="-12.833" type="line"/>
      <point x="757" y="701.667" type="line"/>
      <point x="737.5" y="701.667" type="line"/>
      <point x="654.833" y="27.5" type="line"/>
      <point x="665.333" y="26" type="line"/>
      <point x="184.167" y="713.333" type="line"/>
      <point x="183" y="713.333" type="line"/>
      <point x="95.667" y="0" type="line"/>
      <point x="115.167" y="0" type="line"/>
      <point x="197.833" y="675.667" type="line"/>
      <point x="191.667" y="666.333" type="line"/>
      <point x="668.5" y="-12.833" type="line"/>
    </contour>
  </outline>
</glyph>
<glyph name="R" format="2">
  <advance width="617"/>
  <unicode hex="0052"/>
  <anchor x="286.333" y="0" name="bottom"/>
  <anchor x="341.5" y="701.333" name="top"/>
  <outline>
    <contour>
      <point x="325.5" y="701.667" type="curve" smooth="yes"/>
      <point x="181.833" y="701.667" type="line"/>
      <point x="95.667" y="0" type="line"/>
      <point x="115.333" y="0" type="line"/>
      <point x="154" y="317.167" type="line"/>
      <point x="265.5" y="317.167" type="line" smooth="yes"/>
      <point x="424.333" y="317.167"/>
      <point x="493.833" y="413.833"/>
      <point x="506" y="514.833" type="curve" smooth="yes"/>
      <point x="523" y="653.333"/>
      <point x="407.167" y="701.667"/>
    </contour>
    <contour>
      <point x="265.333" y="335.833" type="curve" smooth="yes"/>
      <point x="156.667" y="335.833" type="line"/>
      <point x="198.833" y="683" type="line"/>
      <point x="323.833" y="683" type="line" smooth="yes"/>
      <point x="425" y="683"/>
      <point x="498.5" y="614.333"/>
      <point x="486" y="513.667" type="curve" smooth="yes"/>
      <point x="476.167" y="431.5"/>
      <point x="423.167" y="335.833"/>
    </contour>
    <contour>
      <point x="355.833" y="334.667" type="line"/>
      <point x="333" y="334.5" type="line"/>
      <point x="493.5" y="0" type="line"/>
      <point x="516.333" y="0" type="line"/>
    </contour>
  </outline>
</glyph>
<glyph name="V" format="2">
  <advance width="691"/>
  <unicode hex="0056"/>
  <anchor x="322.167" y="0" name="bottom"/>
  <anchor x="404.333" y="700" name="top"/>
  <outline>
    <contour>
      <point x="318.167" y="-29.833" type="line"/>
      <point x="319.333" y="-29.833" type="line"/>
      <point x="700.333" y="701.667" type="line"/>
      <point x="678.5" y="701.667" type="line"/>
      <point x="317.333" y="2.167" type="line"/>
      <point x="328.5" y="1.5" type="line"/>
      <point x="138.333" y="701.667" type="line"/>
      <point x="116.333" y="701.667" type="line"/>
    </contour>
  </outline>
</glyph>
<glyph name="W" format="2">
  <advance width="983"/>
  <unicode hex="0057"/>
  <anchor x="491" y="0" name="bottom"/>
  <anchor x="577.333" y="701.667" name="top"/>
  <outline>
    <contour>
      <point x="116.333" y="701.333" type="line"/>
      <point x="302.167" y="-32.167" type="line"/>
      <point x="513.833" y="401" type="line"/>
      <point x="506.167" y="424" type="line"/>
      <point x="304.167" y="10.333" type="line"/>
      <point x="310.833" y="9" type="line"/>
      <point x="138.167" y="701.333" type="line"/>
    </contour>
    <contour>
      <point x="431" y="701.333" type="line"/>
      <point x="617.167" y="-32" type="line"/>
      <point x="992.167" y="701.333" type="line"/>
      <point x="971" y="701.333" type="line"/>
      <point x="617.667" y="8" type="line"/>
      <point x="628.333" y="4" type="line"/>
      <point x="451.667" y="701.333" type="line"/>
    </contour>
  </outline>
</glyph>
<glyph name="X" format="2">
  <advance width="586"/>
  <unicode hex="0058"/>
  <outline>
    <contour>
      <point x="121.167" y="701.667" type="line"/>
      <point x="491" y="0" type="line"/>
      <point x="515.5" y="0" type="line"/>
      <point x="144.5" y="701.667" type="line"/>
    </contour>
    <contour>
      <point x="25" y="0" type="line"/>
      <point x="50" y="0" type="line"/>
      <point x="315.333" y="352" type="line"/>
      <point x="301.5" y="364.167" type="line"/>
    </contour>
    <contour>
      <point x="309.167" y="368.5" type="line"/>
      <point x="322.333" y="355.333" type="line"/>
      <point x="586" y="701.667" type="line"/>
      <point x="561" y="701.667" type="line"/>
    </contour>
  </outline>
</glyph>
<glyph name="Z" format="2">
  <advance width="631"/>
  <unicode hex="005A"/>
  <anchor x="293" y="0" name="bottom"/>
  <anchor x="381.333" y="701.667" name="top"/>
  <outline>
    <contour>
      <point x="14.333" y="0" type="line"/>
      <point x="592.5" y="0" type="line"/>
      <point x="595.167" y="18.667" type="line"/>
      <point x="45.333" y="18.667" type="line"/>
      <point x="47.833" y="14" type="line"/>
      <point x="647.167" y="701.667" type="line"/>
      <point x="175" y="701.667" type="line"/>
      <point x="153" y="701.667"/>
      <point x="146" y="712.333"/>
      <point x="147" y="724.667" type="curve" smooth="yes"/>
      <point x="149" y="736.667" type="line"/>
      <point x="127.833" y="736.667" type="line"/>
      <point x="126.333" y="728.167" type="line" smooth="yes"/>
      <point x="122.167" y="690.167"/>
      <point x="141.667" y="683"/>
      <point x="178" y="683" type="curve" smooth="yes"/>
      <point x="618.833" y="683" type="line"/>
      <point x="612.333" y="688.5" type="line"/>
    </contour>
  </outline>
</glyph>
<glyph name="grave" format="2">
  <advance width="200"/>
  <unicode hex="0060"/>
  <outline>
    <contour>
      <point x="81.833" y="612.5" type="line"/>
      <point x="59.667" y="612.5" type="line"/>
      <point x="136.167" y="479.5" type="line"/>
      <point x="155.167" y="479.5" type="line"/>
    </contour>
  </outline>
</glyph>
<glyph name="y" format="2">
  <advance width="422"/>
  <unicode hex="0079"/>
  <anchor x="304.5" y="-8.667" name="bottom"/>
  <anchor x="244.333" y="377.667" name="top"/>
  <outline>
    <contour>
      <point x="97" y="-181.333" type="line"/>
      <point x="119.833" y="-181.333" type="line"/>
      <point x="431.167" y="377.667" type="line"/>
      <point x="408.667" y="377.667" type="line"/>
    </contour>
    <contour>
      <point x="196.667" y="-4.833" type="line"/>
      <point x="214.167" y="6.833" type="line"/>
      <point x="90.333" y="377.667" type="line"/>
      <point x="68.167" y="377.667" type="line"/>
    </contour>
  </outline>
</glyph>
<glyph name="z" format="2">
  <advance width="368"/>
  <unicode hex="007A"/>
  <anchor x="127.833" y="0" name="bottom"/>
  <anchor x="174.333" y="377.667" name="top"/>
  <outline>
    <contour>
      <point x="117.5" y="359.333" type="curve" smooth="yes"/>
      <point x="326.833" y="359.333" type="line"/>
      <point x="322.167" y="366.833" type="line"/>
      <point x="17.833" y="0" type="line"/>
      <point x="304" y="0" type="line"/>
      <point x="306.5" y="18.333" type="line"/>
      <point x="43.5" y="18.333" type="line"/>
      <point x="52" y="13.333" type="line"/>
      <point x="355.167" y="377.667" type="line"/>
      <point x="108.833" y="377.667" type="line" smooth="yes"/>
      <point x="86.667" y="377.667"/>
      <point x="79.667" y="388.333"/>
      <point x="79.833" y="401" type="curve" smooth="yes"/>
      <point x="79.833" y="413" type="line"/>
      <point x="62.833" y="413" type="line"/>
      <point x="62.5" y="406.5" type="line" smooth="yes"/>
      <point x="60.167" y="367.667"/>
      <point x="76.167" y="359.333"/>
    </contour>
  </outline>
</glyph>
<glyph name="braceright" format="2">
  <advance width="323"/>
  <unicode hex="007D"/>
  <outline>
    <contour>
      <point x="125.833" y="-129.5" type="curve" smooth="yes"/>
      <point x="69.667" y="-129.5" type="line"/>
      <point x="67.167" y="-148.167" type="line"/>
      <point x="106" y="-148.167" type="line" smooth="yes"/>
      <point x="150.5" y="-148.167"/>
      <point x="193.333" y="-153.333"/>
      <point x="208.333" y="-30.167" type="curve" smooth="yes"/>
      <point x="226.333" y="116.5" type="line" smooth="yes"/>
      <point x="232.5" y="162.167"/>
      <point x="243.5" y="281.167"/>
      <point x="326.167" y="285" type="curve"/>
      <point x="329.667" y="313.167" type="line"/>
      <point x="329.667" y="313.167" type="line"/>
      <point x="248" y="317"/>
      <point x="265.333" y="435.167"/>
      <point x="271.333" y="481.667" type="curve" smooth="yes"/>
      <point x="289.333" y="628.5" type="line" smooth="yes"/>
      <point x="304.5" y="750.833"/>
      <point x="261.333" y="746.667"/>
      <point x="216" y="746.667" type="curve" smooth="yes"/>
      <point x="177.167" y="746.667" type="line"/>
      <point x="174.667" y="727.833" type="line"/>
      <point x="230.833" y="727.833" type="line" smooth="yes"/>
      <point x="271.833" y="727.833"/>
      <point x="279" y="697"/>
      <point x="268.833" y="616.5" type="curve" smooth="yes"/>
      <point x="251" y="467.833" type="line" smooth="yes"/>
      <point x="236.333" y="345.833"/>
      <point x="264" y="318.167"/>
      <point x="296.333" y="299.167" type="curve"/>
      <point x="269.333" y="285"/>
      <point x="224.333" y="254.5"/>
      <point x="213.333" y="165.167" type="curve" smooth="yes"/>
      <point x="190.833" y="-18" type="line" smooth="yes"/>
      <point x="180.833" y="-98.5"/>
      <point x="166.833" y="-129.5"/>
    </contour>
  </outline>
</glyph>
<glyph name="yen" format="2">
  <advance width="643"/>
  <unicode hex="00A5"/>
  <outline>
    <contour>
      <point x="151.667" y="278.667" type="line"/>
      <point x="151" y="260.333" type="line"/>
      <point x="484.5" y="260.333" type="line"/>
      <point x="485.167" y="278.667" type="line"/>
    </contour>
    <contour>
      <point x="151" y="116.833" type="line"/>
      <point x="150.333" y="98.333" type="line"/>
      <point x="482.833" y="98.333" type="line"/>
      <point x="483.5" y="116.833" type="line"/>
    </contour>
    <contour>
      <point x="321" y="277.5" type="line"/>
      <point x="286.833" y="0" type="line"/>
      <point x="308.5" y="0" type="line"/>
      <point x="342.667" y="277.5" type="line"/>
      <point x="657.333" y="701.667" type="line"/>
      <point x="632.167" y="701.667" type="line"/>
      <point x="328.833" y="292.333" type="line"/>
      <point x="338.333" y="293.5" type="line"/>
      <point x="133.667" y="701.667" type="line"/>
      <point x="111.5" y="701.667" type="line"/>
    </contour>
  </outline>
</glyph>
<glyph name="plusminus" format="2">
  <advance width="525"/>
  <unicode hex="00B1"/>
  <outline>
    <contour>
      <point x="326.833" y="571.5" type="line"/>
      <point x="306" y="401.667" type="line"/>
      <point x="135.333" y="401.667" type="line"/>
      <point x="133.833" y="382.833" type="line"/>
      <point x="304.5" y="382.833" type="line"/>
      <point x="282.833" y="211.167" type="line"/>
      <point x="301.667" y="211.167" type="line"/>
      <point x="323.5" y="382.833" type="line"/>
      <point x="494.167" y="382.833" type="line"/>
      <point x="495.667" y="401.667" type="line"/>
      <point x="325" y="401.667" type="line"/>
      <point x="345.833" y="571.5" type="line"/>
    </contour>
    <contour>
      <point x="105.167" y="151.5" type="line"/>
      <point x="102.667" y="132.667" type="line"/>
      <point x="463" y="132.667" type="line"/>
      <point x="465.5" y="151.5" type="line"/>
    </contour>
  </outline>
</glyph>
<glyph name="threesuperior" format="2">
  <advance width="412.33333"/>
  <unicode hex="00B3"/>
  <outline>
    <contour>
      <point x="190" y="370.833" type="curve" smooth="yes"/>
      <point x="255.5" y="370.833"/>
      <point x="304.5" y="416.667"/>
      <point x="312.667" y="482.333" type="curve" smooth="yes"/>
      <point x="319.667" y="541.833"/>
      <point x="279.167" y="577"/>
      <point x="227.5" y="574.167" type="curve"/>
      <point x="207.667" y="574.167"/>
      <point x="184.667" y="567.833"/>
      <point x="171.333" y="559.333" type="curve"/>
      <point x="187.5" y="561" type="line"/>
      <point x="310.833" y="699.167" type="line"/>
      <point x="149.333" y="699.167" type="line"/>
      <point x="146.833" y="682.333" type="line"/>
      <point x="291.5" y="682.333" type="line"/>
      <point x="283.667" y="692.667" type="line"/>
      <point x="155.5" y="547.667" type="line"/>
      <point x="156.667" y="545.167" type="line"/>
      <point x="176.167" y="552"/>
      <point x="190.333" y="558.833"/>
      <point x="223.333" y="558.833" type="curve" smooth="yes"/>
      <point x="266" y="558.833"/>
      <point x="299.667" y="533.833"/>
      <point x="293.667" y="482.5" type="curve" smooth="yes"/>
      <point x="286.833" y="430.333"/>
      <point x="247.5" y="387.5"/>
      <point x="192.5" y="387.333" type="curve" smooth="yes"/>
      <point x="153" y="387"/>
      <point x="129" y="405.833"/>
      <point x="115.333" y="423.5" type="curve"/>
      <point x="105.5" y="411.333" type="line"/>
      <point x="121.5" y="391.333"/>
      <point x="148" y="370.833"/>
    </contour>
  </outline>
</glyph>
<glyph name="acute" format="2">
  <advance width="222"/>
  <unicode hex="00B4"/>
  <outline>
    <contour>
      <point x="283.333" y="612.5" type="line"/>
      <point x="261.333" y="612.5" type="line"/>
      <point x="156.5" y="479.5" type="line"/>
      <point x="175.5" y="479.5" type="line"/>
    </contour>
  </outline>
</glyph>
<glyph name="ordmasculine" format="2">
  <advance width="382.66667"/>
  <unicode hex="00BA"/>
  <outline>
    <contour>
      <point x="90.167" y="563.333" type="curve"/>
      <point x="80" y="479.667"/>
      <point x="137.167" y="413.833"/>
      <point x="217.833" y="408.833" type="curve"/>
      <point x="299.667" y="403.833"/>
      <point x="372.333" y="463.833"/>
      <point x="382.5" y="545.167" type="curve"/>
      <point x="392.5" y="626.5"/>
      <point x="334.667" y="696.5"/>
      <point x="253.833" y="701.5" type="curve"/>
      <point x="172.167" y="706.667"/>
      <point x="100.167" y="644.667"/>
    </contour>
    <contour>
      <point x="108.167" y="562" type="curve"/>
      <point x="116.167" y="629.5"/>
      <point x="178.333" y="689"/>
      <point x="251.5" y="685" type="curve"/>
      <point x="322.667" y="680.167"/>
      <point x="373.167" y="618.667"/>
      <point x="364.333" y="546.333" type="curve"/>
      <point x="355.5" y="475.167"/>
      <point x="290.333" y="421.333"/>
      <point x="220.167" y="425.333" type="curve"/>
      <point x="149" y="430.167"/>
      <point x="99.5" y="490.667"/>
    </contour>
  </outline>
</glyph>
<glyph name="guillemetright" format="2">
  <advance width="602"/>
  <unicode hex="00BB"/>
  <outline>
    <contour>
      <point x="430.33299999999997" y="239.167" type="curve"/>
      <point x="279.5" y="75.333" type="line"/>
      <point x="276.833" y="96.833" type="line"/>
      <point x="316.0" y="143.667"/>
      <point x="357.66700000000003" y="192.333"/>
      <point x="396.83299999999997" y="239.167" type="curve"/>
      <point x="346.16700000000003" y="285.167"/>
      <point x="292.333" y="333.667"/>
      <point x="241.66699999999997" y="379.667" type="curve"/>
      <point x="239.0" y="402.167" type="line"/>
      <point x="300.167" y="350.5"/>
      <point x="369.16700000000003" y="290.833"/>
    </contour>
    <contour>
      <point x="259.167" y="239.167" type="curve"/>
      <point x="108.33300000000003" y="75.333" type="line"/>
      <point x="105.66699999999997" y="96.833" type="line"/>
      <point x="144.83300000000003" y="143.667"/>
      <point x="186.5" y="192.333"/>
      <point x="225.66699999999997" y="239.167" type="curve"/>
      <point x="175.0" y="285.167"/>
      <point x="121.16699999999997" y="333.833"/>
      <point x="70.5" y="379.667" type="curve"/>
      <point x="67.83300000000003" y="402.167" type="line"/>
      <point x="129.0" y="350.5"/>
      <point x="198.0" y="290.833"/>
    </contour>
  </outline>
</glyph>
<glyph name="onequarter" format="2">
  <advance width="769"/>
  <unicode hex="00BC"/>
  <outline>
    <contour>
      <point x="583.834" y="754.72241625" type="curve"/>
      <point x="565.0" y="754.72241625" type="line"/>
      <point x="440.834" y="502.870625"/>
      <point x="317.66700000000003" y="251.85179125000002"/>
      <point x="193.5" y="0.0" type="curve"/>
      <point x="212.5" y="0.0" type="line"/>
      <point x="336.66700000000003" y="251.85179125000002"/>
      <point x="459.66700000000003" y="502.870625"/>
    </contour>
    <component base="onesuperior"/>
    <component base="foursuperior" xOffset="403.667" yOffset="-346.833"/>
  </outline>
</glyph>
<glyph name="questiondown" format="2">
  <advance width="412"/>
  <unicode hex="00BF"/>
  <outline>
    <contour>
      <point x="277.83299999999997" y="277.833" type="curve" smooth="yes"/>
      <point x="289.83299999999997" y="374.83299999999997" type="line"/>
      <point x="270.83299999999997" y="374.83299999999997" type="line"/>
      <point x="260.83299999999997" y="296.83299999999997" type="line" smooth="yes"/>
      <point x="250" y="210"/>
      <point x="208.66699999999997" y="206.33300000000003"/>
      <point x="152.83300000000003" y="169.16699999999997" type="curve" smooth="yes"/>
      <point x="79.66699999999997" y="120.83300000000003"/>
      <point x="33.66699999999997" y="62.66699999999997"/>
      <point x="33.66699999999997" y="-18.5" type="curve" smooth="yes"/>
      <point x="33.66699999999997" y="-115.5"/>
      <point x="104.66699999999997" y="-193.66700000000003"/>
      <point x="206.83300000000003" y="-193.66700000000003" type="curve" smooth="yes"/>
      <point x="296.33299999999997" y="-193.66700000000003"/>
      <point x="374.83299999999997" y="-134.83299999999997"/>
      <point x="409.16700000000003" y="-59.16700000000003" type="curve"/>
      <point x="404.83299999999997" y="-57.5"/>
      <point x="398.5" y="-56.0"/>
      <point x="393.16700000000003" y="-54.5" type="curve"/>
      <point x="393.16700000000003" y="-54.5" type="line"/>
      <point x="361.5" y="-126.83299999999997"/>
      <point x="288.16700000000003" y="-174.83299999999997"/>
      <point x="209.33300000000003" y="-174.83299999999997" type="curve" smooth="yes"/>
      <point x="117.66699999999997" y="-174.83299999999997"/>
      <point x="52.66699999999997" y="-108.66700000000003"/>
      <point x="52.66699999999997" y="-18.0" type="curve" smooth="yes"/>
      <point x="52.66699999999997" y="38.66699999999997"/>
      <point x="76.16699999999997" y="88.5"/>
      <point x="129.5" y="130.66699999999997" type="curve" smooth="yes"/>
      <point x="201.16699999999997" y="187.0"/>
      <point x="267.66700000000003" y="195.5"/>
    </contour>
    <contour>
      <point x="297.66700000000003" y="515.667" type="curve" smooth="yes"/>
      <point x="297.66700000000003" y="515.667" type="line" smooth="yes"/>
      <point x="285.5" y="515.667"/>
      <point x="272.16700000000003" y="504.83299999999997"/>
      <point x="272.16700000000003" y="491.16700000000003" type="curve" smooth="yes"/>
      <point x="272.16700000000003" y="479.16700000000003"/>
      <point x="282.16700000000003" y="471.16700000000003"/>
      <point x="292.16700000000003" y="471.16700000000003" type="curve" smooth="yes"/>
      <point x="303.33299999999997" y="471.16700000000003"/>
      <point x="316.66700000000003" y="481.33299999999997"/>
      <point x="316.66700000000003" y="495.66700000000003" type="curve" smooth="yes"/>
      <point x="316.66700000000003" y="507.0"/>
      <point x="306.83299999999997" y="515.667"/>
    </contour>
  </outline>
</glyph>
<glyph name="multiply" format="2">
  <advance width="501"/>
  <unicode hex="00D7"/>
  <outline>
    <contour>
      <point x="281" y="149.833" type="curve"/>
      <point x="176.333" y="269.167" type="line"/>
      <point x="160.5" y="254.667" type="line"/>
      <point x="265" y="135.333" type="line"/>
      <point x="219.667" y="95"/>
      <point x="175.333" y="54.667"/>
      <point x="130.167" y="14.333" type="curve"/>
      <point x="134.333" y="9.833"/>
      <point x="138.667" y="4.5"/>
      <point x="142.833" y="0.167" type="curve"/>
      <point x="188" y="40.333"/>
      <point x="232.5" y="80.667"/>
      <point x="277.667" y="121" type="curve"/>
      <point x="313.167" y="80.667"/>
      <point x="348.667" y="40.333"/>
      <point x="384" y="0" type="curve"/>
      <point x="400" y="14.333" type="line"/>
      <point x="364.5" y="54.833"/>
      <point x="329.167" y="95.167"/>
      <point x="293.667" y="135.5" type="curve"/>
      <point x="338.833" y="175.833"/>
      <point x="384.167" y="215.333"/>
      <point x="429.333" y="255.5" type="curve"/>
      <point x="425.167" y="260"/>
      <point x="421" y="265.5"/>
      <point x="416.833" y="269.833" type="curve"/>
      <point x="371.333" y="229.5"/>
      <point x="326.333" y="190.167"/>
    </contour>
  </outline>
</glyph>
<glyph name="Oslash" format="2">
  <advance width="837"/>
  <unicode hex="00D8"/>
  <anchor x="395.333" y="0" name="bottom"/>
  <anchor x="481.5" y="701.667" name="top"/>
  <anchor x="455.333" y="350.0" name="center"/>
  <anchor x="491.5" y="0.5" name="ogonek"/>
  <anchor x="81.167" y="700.0" name="topleft"/>
  <anchor x="718.833" y="597.5" name="topright"/>
  <outline>
    <contour>
      <point x="801.5" y="706.5" type="line"/>
      <point x="792" y="717" type="line"/>
      <point x="112.5" y="9.333" type="line"/>
      <point x="122" y="-1" type="line"/>
    </contour>
    <component base="O"/>
  </outline>
</glyph>
<glyph name="ae" format="2">
  <advance width="761"/>
  <unicode hex="00E6"/>
  <anchor x="354.333" y="0" name="bottom"/>
  <anchor x="400.667" y="377.667" name="top"/>
  <outline>
    <contour>
      <point x="516.167" y="-6.333" type="curve" smooth="yes"/>
      <point x="565.5" y="-6.833"/>
      <point x="611.667" y="9.333"/>
      <point x="649.5" y="37.333" type="curve"/>
      <point x="638.667" y="51.667" type="line"/>
      <point x="605.667" y="25.833"/>
      <point x="562.833" y="11"/>
      <point x="518.167" y="11.333" type="curve" smooth="yes"/>
      <point x="456.833" y="12.5"/>
      <point x="351" y="58.333"/>
      <point x="366.833" y="199.667" type="curve"/>
      <point x="378.833" y="295.167"/>
      <point x="461" y="368"/>
      <point x="555.167" y="367.167" type="curve" smooth="yes"/>
      <point x="603.667" y="366.5"/>
      <point x="672.167" y="342.833"/>
      <point x="701.667" y="251.167" type="curve"/>
      <point x="708.667" y="260" type="line"/>
      <point x="359.833" y="149.333" type="line"/>
      <point x="363" y="131" type="line"/>
      <point x="723.5" y="247.333" type="line"/>
      <point x="694" y="358"/>
      <point x="612.833" y="384.333"/>
      <point x="558.167" y="385.333" type="curve" smooth="yes"/>
      <point x="448.667" y="386.5"/>
      <point x="360.5" y="306.333"/>
      <point x="347.333" y="200.667" type="curve"/>
      <point x="329.167" y="40.5"/>
      <point x="451.833" y="-5"/>
    </contour>
    <contour>
      <point x="195" y="-10" type="curve" smooth="yes"/>
      <point x="234.167" y="-10"/>
      <point x="306.167" y="-3.167"/>
      <point x="347.167" y="41" type="curve"/>
      <point x="360.167" y="148.667" type="line"/>
      <point x="347.333" y="198.333" type="line"/>
      <point x="329.5" y="48" type="line"/>
      <point x="295.5" y="16.5"/>
      <point x="236.667" y="8.667"/>
      <point x="197" y="8.5" type="curve" smooth="yes"/>
      <point x="142" y="8.167"/>
      <point x="69.333" y="26.333"/>
      <point x="65.5" y="92.667" type="curve"/>
      <point x="65" y="159.5"/>
      <point x="117" y="199.667"/>
      <point x="186.333" y="198" type="curve" smooth="yes"/>
      <point x="210.167" y="198.167"/>
      <point x="289.5" y="189.833"/>
      <point x="347.167" y="99.167" type="curve"/>
      <point x="354.333" y="112" type="line"/>
      <point x="313" y="201.333"/>
      <point x="216.667" y="216.333"/>
      <point x="185.5" y="217.167" type="curve" smooth="yes"/>
      <point x="86.5" y="218.167"/>
      <point x="44.167" y="157.667"/>
      <point x="44.167" y="93.167" type="curve" smooth="yes"/>
      <point x="44.167" y="30.5"/>
      <point x="104.333" y="-10"/>
    </contour>
    <contour>
      <point x="347.333" y="199.167" type="line"/>
      <point x="372.667" y="239.333" type="line"/>
      <point x="375.667" y="260.333" type="line" smooth="yes"/>
      <point x="387.167" y="344.167"/>
      <point x="331.5" y="382.5"/>
      <point x="258.833" y="383.5" type="curve" smooth="yes"/>
      <point x="190.333" y="384.167"/>
      <point x="137.167" y="361.167"/>
      <point x="94.5" y="322.667" type="curve"/>
      <point x="103.833" y="307.167" type="line"/>
      <point x="157" y="353.667"/>
      <point x="205" y="365.5"/>
      <point x="253.667" y="365" type="curve" smooth="yes"/>
      <point x="293.5" y="364.5"/>
      <point x="366" y="348.667"/>
      <point x="354.333" y="255.167" type="curve" smooth="yes"/>
    </contour>
  </outline>
</glyph>
<glyph name="divide" format="2">
  <advance width="501"/>
  <unicode hex="00F7"/>
  <outline>
    <contour>
      <point x="240" y="89.833" type="curve" smooth="yes"/>
      <point x="240" y="89.833" type="line" smooth="yes"/>
      <point x="240" y="78.5"/>
      <point x="249" y="69.667"/>
      <point x="260.167" y="69.667" type="curve" smooth="yes"/>
      <point x="273.167" y="69.667"/>
      <point x="285.5" y="80.667"/>
      <point x="285.5" y="94.167" type="curve" smooth="yes"/>
      <point x="285.5" y="105.5"/>
      <point x="276.5" y="114.333"/>
      <point x="265.667" y="114.333" type="curve" smooth="yes"/>
      <point x="252.5" y="114.333"/>
      <point x="240" y="103.333"/>
    </contour>
    <contour>
      <point x="271.333" y="342.667" type="curve" smooth="yes"/>
      <point x="271.333" y="342.667" type="line" smooth="yes"/>
      <point x="271.333" y="331.333"/>
      <point x="280.333" y="322.667"/>
      <point x="291.333" y="322.667" type="curve" smooth="yes"/>
      <point x="304.5" y="322.667"/>
      <point x="316" y="333.5"/>
      <point x="316" y="347.167" type="curve" smooth="yes"/>
      <point x="316" y="358.333"/>
      <point x="307.833" y="367.167"/>
      <point x="297" y="367.167" type="curve" smooth="yes"/>
      <point x="283.833" y="367.167"/>
      <point x="271.333" y="356.167"/>
    </contour>
    <contour>
      <point x="96.667" y="228.667" type="line"/>
      <point x="94" y="209.833" type="line"/>
      <point x="454.333" y="209.833" type="line"/>
      <point x="457" y="228.667" type="line"/>
    </contour>
  </outline>
</glyph>
<glyph name="oslash" format="2">
  <advance width="472"/>
  <unicode hex="00F8"/>
  <anchor x="219.5" y="0.0" name="bottom"/>
  <anchor x="241.5" y="190.667" name="center"/>
  <anchor x="276.0" y="-4.333" name="ogonek"/>
  <anchor x="264.333" y="378.333" name="top"/>
  <anchor x="334.833" y="371.667" name="topright"/>
  <outline>
    <contour>
      <point x="428.833" y="368.667" type="curve"/>
      <point x="418.833" y="379.333" type="line"/>
      <point x="341" y="298.667"/>
      <point x="140.5" y="90.833"/>
      <point x="62.833" y="10.167" type="curve"/>
      <point x="71.833" y="-1.667" type="line"/>
      <point x="149.5" y="80"/>
      <point x="351" y="287"/>
    </contour>
    <component base="o"/>
  </outline>
</glyph>
<glyph name="dcroat" format="2">
  <advance width="509"/>
  <unicode hex="0111"/>
  <anchor x="233" y="0" name="bottom"/>
  <anchor x="484.5" y="571.167" name="center"/>
  <anchor x="277.0" y="380.5" name="top"/>
  <anchor x="564.333" y="717.0" name="topright"/>
  <outline>
    <contour>
      <point x="291.5" y="633.167" type="line"/>
      <point x="289.167" y="615.333" type="line"/>
      <point x="571.333" y="615.333" type="line"/>
      <point x="573.833" y="633.167" type="line"/>
    </contour>
    <component base="d"/>
  </outline>
</glyph>
<glyph name="gcommaaccent" format="2">
  <advance width="546"/>
  <unicode hex="0123"/>
  <anchor x="333.5" y="589.167" name="bottom"/>
  <anchor x="295.667" y="380.5" name="top"/>
  <outline>
    <contour>
      <point x="363.833" y="563.6669999999999" type="line"/>
      <point x="307.66600000000005" y="538.0"/>
      <point x="291.66600000000005" y="481.667"/>
      <point x="291.333" y="429.33399999999995" type="curve"/>
      <point x="312.833" y="428.33399999999995" type="line"/>
      <point x="312.5" y="485.0"/>
      <point x="332.16600000000005" y="529.6669999999999"/>
      <point x="372.66600000000005" y="553.834" type="curve"/>
    </contour>
    <component base="g"/>
  </outline>
</glyph>
<glyph name="Hbar" format="2">
  <advance width="894"/>
  <unicode hex="0126"/>
  <anchor x="419.16600000000005" y="0.0" name="bottom"/>
  <anchor x="462.0" y="350.5" name="center"/>
  <anchor x="504.83299999999997" y="701.833" name="top"/>
  <anchor x="151.666" y="700.0" name="topleft"/>
  <outline>
    <contour>
      <point x="158.333" y="510.333" type="line"/>
      <point x="156" y="493.667" type="line"/>
      <point x="811.5" y="493.667" type="line"/>
      <point x="813.833" y="510.333" type="line"/>
    </contour>
    <component base="H" xOffset="74.833"/>
  </outline>
</glyph>
<glyph name="Lslash" format="2">
  <advance width="554"/>
  <unicode hex="0141"/>
  <anchor x="303.667" y="0.0" name="bottom"/>
  <anchor x="535.167" y="350.833" name="center"/>
  <anchor x="185.0" y="702.5" name="top"/>
  <anchor x="603.167" y="701.667" name="topright"/>
  <outline>
    <contour>
      <point x="392" y="410.833" type="line"/>
      <point x="59" y="295.333" type="line"/>
      <point x="56.333" y="276.667" type="line"/>
      <point x="389.333" y="392.167" type="line"/>
    </contour>
    <component base="L"/>
  </outline>
</glyph>
<glyph name="OE" format="2">
  <advance width="990"/>
  <unicode hex="0152"/>
  <outline>
    <contour>
      <point x="584.667" y="682" type="curve"/>
      <point x="603.667" y="697.5" type="line"/>
      <point x="575.667" y="705.5"/>
      <point x="546.5" y="709.667"/>
      <point x="514.5" y="709.667" type="curve" smooth="yes"/>
      <point x="302" y="709.667"/>
      <point x="109.667" y="529"/>
      <point x="109.667" y="313.667" type="curve" smooth="yes"/>
      <point x="109.667" y="134.333"/>
      <point x="243.833" y="-8"/>
      <point x="426.333" y="-8" type="curve" smooth="yes"/>
      <point x="457.333" y="-8"/>
      <point x="487.333" y="-4"/>
      <point x="516.5" y="3" type="curve"/>
      <point x="503.167" y="20.5" type="line"/>
      <point x="477.5" y="14.5"/>
      <point x="452.833" y="11.667"/>
      <point x="426.333" y="11.667" type="curve" smooth="yes"/>
      <point x="255.833" y="11.667"/>
      <point x="129.667" y="145.667"/>
      <point x="129.667" y="314.333" type="curve" smooth="yes"/>
      <point x="129.667" y="517.333"/>
      <point x="311.833" y="689.833"/>
      <point x="511.833" y="689.833" type="curve" smooth="yes"/>
      <point x="537.5" y="689.833"/>
      <point x="562" y="686.833"/>
    </contour>
    <contour>
      <point x="581.333" y="701.667" type="line"/>
      <point x="495.167" y="0" type="line"/>
      <point x="898" y="0" type="line"/>
      <point x="900.667" y="19.5" type="line"/>
      <point x="517.833" y="19.5" type="line"/>
      <point x="557" y="344" type="line"/>
      <point x="886.667" y="344" type="line"/>
      <point x="889.333" y="363.333" type="line"/>
      <point x="559.5" y="363.333" type="line"/>
      <point x="598.667" y="682.333" type="line"/>
      <point x="967.5" y="682.333" type="line"/>
      <point x="970.167" y="701.667" type="line"/>
    </contour>
  </outline>
</glyph>
<glyph name="jdotless" format="2">
  <advance width="226"/>
  <unicode hex="0237"/>
  <anchor x="152.333" y="-65.833" name="bottom"/>
  <anchor x="142" y="377.667" name="top"/>
  <outline>
    <contour>
      <point x="8.833" y="-170.667" type="curve"/>
      <point x="20.833" y="-181.5" type="line"/>
      <point x="66.667" y="-143.667"/>
      <point x="98.5" y="-85.167"/>
      <point x="108" y="-5.833" type="curve" smooth="yes"/>
      <point x="155.167" y="377.667" type="line"/>
      <point x="135.667" y="377.667" type="line"/>
      <point x="87.833" y="-12.167" type="line" smooth="yes"/>
      <point x="78.5" y="-80.5"/>
      <point x="49.833" y="-134.333"/>
    </contour>
  </outline>
</glyph>
<glyph name="circumflex" format="2">
  <advance width="451.16667"/>
  <unicode hex="02C6"/>
  <outline>
    <contour>
      <point x="392.167" y="479.5" type="line"/>
      <point x="413" y="479.5" type="line"/>
      <point x="312" y="660.5" type="line"/>
      <point x="312" y="660.5" type="line"/>
      <point x="167.167" y="479.5" type="line"/>
      <point x="188" y="479.5" type="line"/>
      <point x="314.333" y="636.167" type="line"/>
      <point x="305" y="635.667" type="line"/>
    </contour>
  </outline>
</glyph>
<glyph name="breve" format="2">
  <advance width="505.66667"/>
  <unicode hex="02D8"/>
  <outline>
    <contour>
      <point x="319.667" y="499.667" type="curve" smooth="yes"/>
      <point x="390.833" y="499.333"/>
      <point x="442.5" y="570.5"/>
      <point x="454.333" y="657.5" type="curve"/>
      <point x="436.833" y="657.5" type="line"/>
      <point x="425.5" y="584.5"/>
      <point x="384.167" y="517"/>
      <point x="321" y="517.167" type="curve" smooth="yes"/>
      <point x="272" y="517.333"/>
      <point x="215.167" y="557.333"/>
      <point x="223.833" y="657.5" type="curve"/>
      <point x="207.333" y="657.5" type="line"/>
      <point x="195.833" y="539.167"/>
      <point x="265.833" y="499.833"/>
    </contour>
  </outline>
</glyph>
<glyph name="ogonek" format="2">
  <advance width="356"/>
  <unicode hex="02DB"/>
  <outline>
    <contour>
      <point x="143.667" y="-188" type="curve"/>
      <point x="177.333" y="-188.167"/>
      <point x="205.833" y="-163"/>
      <point x="219.833" y="-134.333" type="curve"/>
      <point x="207.5" y="-125.333" type="line"/>
      <point x="193" y="-150.667"/>
      <point x="171.833" y="-170.5"/>
      <point x="145.833" y="-170.333" type="curve"/>
      <point x="118" y="-170.333"/>
      <point x="91.333" y="-147"/>
      <point x="91.5" y="-110" type="curve"/>
      <point x="91.667" y="-71.167"/>
      <point x="124.667" y="-33.833"/>
      <point x="184.667" y="-0.333" type="curve"/>
      <point x="171" y="12" type="line"/>
      <point x="117.833" y="-14.833"/>
      <point x="72" y="-60.667"/>
      <point x="72" y="-111" type="curve"/>
      <point x="72" y="-157"/>
      <point x="106" y="-187.833"/>
    </contour>
  </outline>
</glyph>
<glyph name="tildecomb" format="2">
  <unicode hex="0303"/>
  <anchor x="356.5" y="377.667" name="_top"/>
  <anchor x="376.5" y="533.667" name="top"/>
  <outline>
    <contour>
      <point x="443.499" y="443.5" type="curve"/>
      <point x="482.999" y="441.334"/>
      <point x="518.333" y="471.5"/>
      <point x="530.499" y="548.834" type="curve"/>
      <point x="514.333" y="551.834" type="line"/>
      <point x="500.999" y="476.5"/>
      <point x="472.833" y="459.334"/>
      <point x="445.666" y="461.334" type="curve"/>
      <point x="417.166" y="463.167"/>
      <point x="401.999" y="484.167"/>
      <point x="386.833" y="506" type="curve"/>
      <point x="370.499" y="530.167"/>
      <point x="353.999" y="555.334"/>
      <point x="315.833" y="557.334" type="curve"/>
      <point x="280.166" y="559.5"/>
      <point x="239.333" y="528.834"/>
      <point x="226.833" y="452" type="curve"/>
      <point x="242.999" y="448.834" type="line"/>
      <point x="256.499" y="524.167"/>
      <point x="292.333" y="540.334"/>
      <point x="314.833" y="539.334" type="curve"/>
      <point x="342.499" y="537.334"/>
      <point x="356.499" y="515.667"/>
      <point x="371.499" y="494" type="curve"/>
      <point x="388.999" y="469.834"/>
      <point x="406.499" y="445.5"/>
    </contour>
  </outline>
</glyph>
<glyph name="Delta" format="2">
  <advance width="757"/>
  <unicode hex="0394"/>
  <outline>
    <contour>
      <point x="39.333" y="0" type="line"/>
      <point x="671" y="0" type="line"/>
      <point x="449.333" y="733.5" type="line"/>
      <point x="444.333" y="733.5" type="line"/>
    </contour>
    <contour>
      <point x="646.333" y="6.167" type="line"/>
      <point x="654.5" y="18.5" type="line"/>
      <point x="58.667" y="18.5" type="line"/>
      <point x="64.667" y="8.667" type="line"/>
      <point x="450.667" y="708.167" type="line"/>
      <point x="438" y="711.5" type="line"/>
    </contour>
  </outline>
</glyph>
<glyph name="pi" format="2">
  <advance width="274"/>
  <unicode hex="03C0"/>
  <outline>
    <contour>
      <point x="40.667" y="322.167" type="line"/>
      <point x="38" y="303.333" type="line"/>
      <point x="89.333" y="303.333" type="line"/>
      <point x="51.667" y="0" type="line"/>
      <point x="70.667" y="0" type="line"/>
      <point x="108.333" y="303.333" type="line"/>
      <point x="253" y="303.333" type="line"/>
      <point x="215.333" y="0" type="line"/>
      <point x="234.167" y="0" type="line"/>
      <point x="271.833" y="303.333" type="line"/>
      <point x="311" y="303.333" type="line"/>
      <point x="313.5" y="322.167" type="line"/>
    </contour>
  </outline>
</glyph>
<glyph name="quoteright" format="2">
  <advance width="164"/>
  <unicode hex="2019"/>
  <outline>
    <contour>
      <point x="135.833" y="572.167" type="curve"/>
      <point x="135.833" y="572.167" type="line"/>
      <point x="179.833" y="607.333"/>
      <point x="203.833" y="658.5"/>
      <point x="198.833" y="711.667" type="curve"/>
      <point x="192" y="709.667"/>
      <point x="184.167" y="706.667"/>
      <point x="176.5" y="704.667" type="curve"/>
      <point x="180.5" y="658.5"/>
      <point x="161.5" y="617.5"/>
      <point x="129.5" y="590.5" type="curve"/>
      <point x="132.333" y="584.333"/>
      <point x="134" y="578.167"/>
    </contour>
  </outline>
</glyph>
<glyph name="ellipsis" format="2">
  <advance width="490"/>
  <unicode hex="2026"/>
  <outline>
    <contour>
      <point x="66" y="20" type="curve" smooth="yes"/>
      <point x="66" y="20" type="line" smooth="yes"/>
      <point x="66" y="8.833"/>
      <point x="75" y="0"/>
      <point x="86" y="0" type="curve" smooth="yes"/>
      <point x="99" y="0"/>
      <point x="111.5" y="11"/>
      <point x="111.5" y="24.5" type="curve" smooth="yes"/>
      <point x="111.5" y="35.667"/>
      <point x="102.5" y="44.667"/>
      <point x="91.667" y="44.667" type="curve" smooth="yes"/>
      <point x="78.5" y="44.667"/>
      <point x="66" y="33.5"/>
    </contour>
    <contour>
      <point x="229.167" y="20" type="curve" smooth="yes"/>
      <point x="229.167" y="20" type="line" smooth="yes"/>
      <point x="229.167" y="8.833"/>
      <point x="238.167" y="0"/>
      <point x="249.167" y="0" type="curve" smooth="yes"/>
      <point x="262.167" y="0"/>
      <point x="274.667" y="11"/>
      <point x="274.667" y="24.5" type="curve" smooth="yes"/>
      <point x="274.667" y="35.667"/>
      <point x="265.667" y="44.667"/>
      <point x="254.833" y="44.667" type="curve" smooth="yes"/>
      <point x="241.667" y="44.667"/>
      <point x="229.167" y="33.5"/>
    </contour>
    <contour>
      <point x="392.333" y="20" type="curve" smooth="yes"/>
      <point x="392.333" y="20" type="line" smooth="yes"/>
      <point x="392.333" y="8.833"/>
      <point x="401.333" y="0"/>
      <point x="412.333" y="0" type="curve" smooth="yes"/>
      <point x="425.333" y="0"/>
      <point x="437.833" y="11"/>
      <point x="437.833" y="24.5" type="curve" smooth="yes"/>
      <point x="437.833" y="35.667"/>
      <point x="428.833" y="44.667"/>
      <point x="418" y="44.667" type="curve" smooth="yes"/>
      <point x="404.833" y="44.667"/>
      <point x="392.333" y="33.5"/>
    </contour>
  </outline>
</glyph>
<glyph name="guilsinglleft" format="2">
  <advance width="392"/>
  <unicode hex="2039"/>
  <outline>
    <contour>
      <point x="146.167" y="239.167" type="curve"/>
      <point x="297" y="75.333" type="line"/>
      <point x="299.667" y="96.833" type="line"/>
      <point x="260.5" y="143.667"/>
      <point x="218.833" y="192.333"/>
      <point x="179.667" y="239.167" type="curve"/>
      <point x="230.333" y="285.167"/>
      <point x="284.167" y="333.667"/>
      <point x="334.833" y="379.667" type="curve"/>
      <point x="337.5" y="402.167" type="line"/>
      <point x="276.333" y="350.5"/>
      <point x="207.333" y="290.833"/>
    </contour>
  </outline>
</glyph>
<glyph name="dong" format="2">
  <advance width="601.83333"/>
  <unicode hex="20AB"/>
  <outline>
    <contour>
      <point x="389.333" y="669.5" type="line"/>
      <point x="387.833" y="652.833" type="line"/>
      <point x="592.333" y="652.833" type="line"/>
      <point x="593.833" y="669.5" type="line"/>
    </contour>
    <contour>
      <point x="68.333" y="16.667" type="line"/>
      <point x="66.833" y="0" type="line"/>
      <point x="532.833" y="0" type="line"/>
      <point x="534.333" y="16.667" type="line"/>
    </contour>
    <contour>
      <point x="288.667" y="107" type="curve" smooth="yes"/>
      <point x="370.833" y="102.167"/>
      <point x="443.167" y="144.333"/>
      <point x="475.667" y="224.667" type="curve"/>
      <point x="474.5" y="242.167" type="line"/>
      <point x="457.833" y="112.333" type="line"/>
      <point x="477.333" y="112.333" type="line"/>
      <point x="558.167" y="770.833" type="line"/>
      <point x="538.667" y="770.833" type="line"/>
      <point x="485.5" y="345.333" type="line"/>
      <point x="493.5" y="346.167" type="line"/>
      <point x="483.667" y="428"/>
      <point x="417.333" y="492.833"/>
      <point x="336.5" y="497.667" type="curve" smooth="yes"/>
      <point x="229.667" y="503.5"/>
      <point x="132.5" y="430.833"/>
      <point x="117.333" y="313.5" type="curve" smooth="yes"/>
      <point x="104.167" y="203.667"/>
      <point x="180" y="112.667"/>
    </contour>
    <contour>
      <point x="292.667" y="124.667" type="curve" smooth="yes"/>
      <point x="194" y="130.333"/>
      <point x="125.167" y="214"/>
      <point x="137.167" y="312.667" type="curve" smooth="yes"/>
      <point x="149.833" y="418"/>
      <point x="236.333" y="486.167"/>
      <point x="335.167" y="480.333" type="curve" smooth="yes"/>
      <point x="423.667" y="474.667"/>
      <point x="478.667" y="402.5"/>
      <point x="484.167" y="318.667" type="curve"/>
      <point x="479.667" y="285.333" type="line"/>
      <point x="467" y="187.833"/>
      <point x="390" y="118.833"/>
    </contour>
  </outline>
</glyph>
<glyph name="peso" format="2">
  <advance width="540.33333"/>
  <unicode hex="20B1"/>
  <outline>
    <contour>
      <point x="492" y="588" type="line"/>
      <point x="489.5" y="570.333" type="line"/>
      <point x="592.833" y="570.333" type="line"/>
      <point x="595.167" y="588" type="line"/>
    </contour>
    <contour>
      <point x="476.833" y="457" type="line"/>
      <point x="474.5" y="439.333" type="line"/>
      <point x="576.833" y="439.333" type="line"/>
      <point x="579.167" y="457" type="line"/>
    </contour>
    <contour>
      <point x="160.667" y="439.333" type="line"/>
      <point x="163.167" y="457" type="line"/>
      <point x="47.833" y="457" type="line"/>
      <point x="45.333" y="439.333" type="line"/>
    </contour>
    <contour>
      <point x="176.667" y="570.333" type="line"/>
      <point x="179.167" y="588" type="line"/>
      <point x="63.833" y="588" type="line"/>
      <point x="61.333" y="570.333" type="line"/>
    </contour>
    <component base="P" xOffset="0.667"/>
  </outline>
</glyph>
<glyph name="ruble" format="2">
  <advance width="536.33333"/>
  <unicode hex="20BD"/>
  <outline>
    <contour>
      <point x="14" y="179.833" type="line"/>
      <point x="12.333" y="160.833" type="line"/>
      <point x="259.333" y="160.833" type="line"/>
      <point x="260.833" y="179.833" type="line"/>
    </contour>
    <contour>
      <point x="33" y="335.667" type="line"/>
      <point x="31.5" y="316.667" type="line"/>
      <point x="154.667" y="316.667" type="line"/>
      <point x="156.167" y="335.667" type="line"/>
    </contour>
    <component base="P" xOffset="6.333"/>
  </outline>
</glyph>
<glyph name="numero" format="2">
  <advance width="1288.5"/>
  <unicode hex="2116"/>
  <anchor x="384.333" y="0.0" name="bottom_1"/>
  <anchor x="1043.167" y="327.5" name="bottom_2"/>
  <anchor x="1065.167" y="518.167" name="center"/>
  <anchor x="1099.667" y="323.167" name="ogonek"/>
  <anchor x="469.333" y="700.0" name="top_1"/>
  <anchor x="1088.0" y="705.8330000000001" name="top_2"/>
  <anchor x="1158.5" y="699.1669999999999" name="topright"/>
  <outline>
    <contour>
      <point x="871.667" y="235.833" type="line"/>
      <point x="869.167" y="217.167" type="line"/>
      <point x="1236" y="217.167" type="line"/>
      <point x="1238.5" y="235.833" type="line"/>
    </contour>
    <component base="N"/>
    <component base="o" xOffset="823.667" yOffset="327.5"/>
  </outline>
</glyph>
<glyph name="increment" format="2">
  <advance width="499.5"/>
  <unicode hex="2206"/>
  <outline>
    <contour>
      <point x="326" y="730.5" type="line"/>
      <point x="326" y="730.5" type="line"/>
      <point x="117.667" y="284.167" type="line"/>
      <point x="136.667" y="284.167" type="line"/>
      <point x="319.167" y="676" type="line"/>
      <point x="404.833" y="284.167" type="line"/>
      <point x="424" y="284.167" type="line"/>
    </contour>
    <contour>
      <point x="133.667" y="300.667" type="line"/>
      <point x="131.333" y="284.167" type="line"/>
      <point x="412.5" y="284.167" type="line"/>
      <point x="414.833" y="300.667" type="line"/>
    </contour>
  </outline>
</glyph>
<glyph name="product" format="2">
  <advance width="542.33333"/>
  <unicode hex="220F"/>
  <outline>
    <contour>
      <point x="293.333" y="750.667" type="line"/>
      <point x="195" y="-51.833" type="line"/>
      <point x="213.833" y="-51.833" type="line"/>
      <point x="310.5" y="732" type="line"/>
      <point x="457.5" y="732" type="line"/>
      <point x="360.833" y="-51.833" type="line"/>
      <point x="379.667" y="-51.833" type="line"/>
      <point x="478" y="750.667" type="line"/>
    </contour>
  </outline>
</glyph>
<glyph name="minus" format="2">
  <advance width="819.66667"/>
  <unicode hex="2212"/>
  <outline>
    <contour>
      <point x="111.167" y="203.167" type="line"/>
      <point x="108.667" y="184.5" type="line"/>
      <point x="469" y="184.5" type="line"/>
      <point x="471.5" y="203.167" type="line"/>
    </contour>
  </outline>
</glyph>
<glyph name="bulletoperator" format="2">
  <advance width="178"/>
  <unicode hex="2219"/>
  <outline>
    <contour>
      <point x="95.333" y="237.833" type="curve" smooth="yes"/>
      <point x="119.667" y="236.833"/>
      <point x="142" y="255"/>
      <point x="145.167" y="279.333" type="curve" smooth="yes"/>
      <point x="148.333" y="303.833"/>
      <point x="130.333" y="326"/>
      <point x="106" y="327.167" type="curve" smooth="yes"/>
      <point x="81.5" y="328.167"/>
      <point x="59.167" y="312"/>
      <point x="56" y="285.667" type="curve" smooth="yes"/>
      <point x="52.833" y="261.167"/>
      <point x="70.833" y="239"/>
    </contour>
  </outline>
</glyph>
<glyph name="integral" format="2">
  <advance width="311"/>
  <unicode hex="222B"/>
  <outline>
    <contour>
      <point x="269.667" y="727.833" type="curve" smooth="yes"/>
      <point x="325.833" y="727.833" type="line"/>
      <point x="328.333" y="746.667" type="line"/>
      <point x="289.5" y="746.667" type="line" smooth="yes"/>
      <point x="245" y="746.667"/>
      <point x="201.167" y="749.833"/>
      <point x="186.167" y="628.5" type="curve"/>
      <point x="186.167" y="628.5" type="line"/>
      <point x="106.667" y="-18" type="line" smooth="yes"/>
      <point x="96.5" y="-98.5"/>
      <point x="82.667" y="-129.5"/>
      <point x="41.5" y="-129.5" type="curve" smooth="yes"/>
      <point x="-14.5" y="-129.5" type="line"/>
      <point x="-17.167" y="-148.167" type="line"/>
      <point x="21.667" y="-148.167" type="line" smooth="yes"/>
      <point x="75.5" y="-148.167"/>
      <point x="110" y="-152.333"/>
      <point x="128.833" y="3.333" type="curve" smooth="yes"/>
      <point x="203.667" y="616.5" type="line" smooth="yes"/>
      <point x="213.667" y="697"/>
      <point x="228.667" y="727.833"/>
    </contour>
  </outline>
</glyph>
<glyph name="lozenge" format="2">
  <advance width="447.16667"/>
  <unicode hex="25CA"/>
  <outline>
    <contour>
      <point x="326.167" y="730.5" type="line"/>
      <point x="131.667" y="394.167" type="line"/>
      <point x="243.5" y="57.833" type="line"/>
      <point x="438" y="394.167" type="line"/>
    </contour>
    <contour>
      <point x="319.333" y="677.833" type="line"/>
      <point x="418.833" y="394.167" type="line"/>
      <point x="250.167" y="110.667" type="line"/>
      <point x="150.667" y="394.167" type="line"/>
    </contour>
  </outline>
</glyph>
<glyph name="fi" format="2">
  <advance width="510"/>
  <unicode hex="FB01"/>
  <anchor x="381.16600000000005" y="0.0" name="bottom"/>
  <anchor x="371.833" y="10.0" name="ogonek"/>
  <anchor x="434.5" y="525.167" name="top"/>
  <outline>
    <contour>
      <point x="92.667" y="0" type="line"/>
      <point x="112.167" y="0" type="line"/>
      <point x="155.833" y="357" type="line"/>
      <point x="285.167" y="357" type="line"/>
      <point x="286.833" y="375" type="line"/>
      <point x="157.5" y="375" type="line"/>
      <point x="184.167" y="588.833" type="line" smooth="yes"/>
      <point x="197.833" y="703.333"/>
      <point x="231.667" y="741.667"/>
      <point x="294.667" y="741.667" type="curve" smooth="yes"/>
      <point x="307.833" y="741.667"/>
      <point x="317.167" y="738.667"/>
      <point x="323.5" y="735" type="curve"/>
      <point x="334.333" y="749" type="line"/>
      <point x="321.333" y="754"/>
      <point x="307.667" y="757.333"/>
      <point x="294.667" y="757.333" type="curve" smooth="yes"/>
      <point x="222.167" y="757.333"/>
      <point x="179.5" y="714.5"/>
      <point x="163.667" y="585.333" type="curve" smooth="yes"/>
      <point x="138" y="375" type="line"/>
      <point x="72.667" y="375" type="line"/>
      <point x="71" y="357" type="line"/>
      <point x="136.333" y="357" type="line"/>
    </contour>
    <component base="i" xOffset="286.333"/>
  </outline>
</glyph>
<glyph name="fl" format="2">
  <advance width="489"/>
  <unicode hex="FB02"/>
  <anchor x="361.83299999999997" y="0.0" name="bottom"/>
  <anchor x="385.0" y="193.333" name="center"/>
  <anchor x="446.66700000000003" y="751.167" name="top"/>
  <anchor x="536.333" y="749.333" name="topright"/>
  <outline>
    <contour>
      <point x="92.667" y="0" type="line"/>
      <point x="112.167" y="0" type="line"/>
      <point x="155.833" y="357" type="line"/>
      <point x="285.167" y="357" type="line"/>
      <point x="286.833" y="375" type="line"/>
      <point x="157.5" y="375" type="line"/>
      <point x="184.167" y="588.833" type="line" smooth="yes"/>
      <point x="197.833" y="703.333"/>
      <point x="231.667" y="741.667"/>
      <point x="294.667" y="741.667" type="curve" smooth="yes"/>
      <point x="307.833" y="741.667"/>
      <point x="317.167" y="738.667"/>
      <point x="323.5" y="735" type="curve"/>
      <point x="334.333" y="749" type="line"/>
      <point x="321.333" y="754"/>
      <point x="307.667" y="757.333"/>
      <point x="294.667" y="757.333" type="curve" smooth="yes"/>
      <point x="222.167" y="757.333"/>
      <point x="179.5" y="714.5"/>
      <point x="163.667" y="585.333" type="curve" smooth="yes"/>
      <point x="138" y="375" type="line"/>
      <point x="72.667" y="375" type="line"/>
      <point x="71" y="357" type="line"/>
      <point x="136.333" y="357" type="line"/>
    </contour>
    <component base="l" xOffset="281"/>
  </outline>
</glyph>
<glyph name="brevecomb_tildecomb" format="2">
  <anchor x="320.167" y="377.667" name="_top"/>
  <anchor x="373.167" y="806.667" name="top"/>
  <outline>
    <contour>
      <point x="410.2643626700001" y="712.931355" type="curve"/>
      <point x="449.46139767" y="710.7819682200001"/>
      <point x="484.5243858900001" y="740.7165950000001"/>
      <point x="496.5970726700001" y="817.45744322" type="curve"/>
      <point x="480.55506589000004" y="820.4344332200001" type="line"/>
      <point x="467.32333767" y="745.6782450000001"/>
      <point x="439.37337089000005" y="728.6439082200001"/>
      <point x="412.41474178" y="730.62856822" type="curve"/>
      <point x="384.13333678000004" y="732.44750911"/>
      <point x="369.0826676700001" y="753.28643911"/>
      <point x="354.03299089000006" y="774.95198" type="curve"/>
      <point x="337.82427267" y="798.9336191100001"/>
      <point x="321.4508276700001" y="823.90758822"/>
      <point x="283.5775608900001" y="825.89224822" type="curve"/>
      <point x="248.18412678" y="828.041635"/>
      <point x="207.66431589" y="797.6108432200001"/>
      <point x="195.26019089000002" y="721.36616" type="curve"/>
      <point x="211.30219767" y="718.22444322" type="line"/>
      <point x="224.69865267000003" y="792.9796391100001"/>
      <point x="260.25780589" y="809.0226382200001"/>
      <point x="282.58523089000005" y="808.03030822" type="curve"/>
      <point x="310.0390326700001" y="806.04564822"/>
      <point x="323.93165267000006" y="784.54483411"/>
      <point x="338.81660267000007" y="763.04402" type="curve"/>
      <point x="356.18237767000005" y="739.0633732200001"/>
      <point x="373.54815267000004" y="714.916015"/>
    </contour>
    <component base="brevecomb"/>
  </outline>
</glyph>
